<svg xmlns="http://www.w3.org/2000/svg" xmlns:xlink="http://www.w3.org/1999/xlink" version="1.0" x="0" y="0" width="2400" height="459.3410402087308" viewBox="51.31160568237305 102.8581640625 231.37679626464845 44.28369094848633" preserveAspectRatio="xMidYMid meet" color-interpolation-filters="sRGB"><g><defs><linearGradient id="92" x1="0%" y1="0%" x2="100%" y2="0%"><stop offset="0%" stop-color="#fa71cd"></stop> <stop offset="100%" stop-color="#9b59b6"></stop></linearGradient><linearGradient id="93" x1="0%" y1="0%" x2="100%" y2="0%"><stop offset="0%" stop-color="#f9d423"></stop> <stop offset="100%" stop-color="#f83600"></stop></linearGradient><linearGradient id="94" x1="0%" y1="0%" x2="100%" y2="0%"><stop offset="0%" stop-color="#0064d2"></stop> <stop offset="100%" stop-color="#1cb0f6"></stop></linearGradient><linearGradient id="95" x1="0%" y1="0%" x2="100%" y2="0%"><stop offset="0%" stop-color="#f00978"></stop> <stop offset="100%" stop-color="#3f51b1"></stop></linearGradient><linearGradient id="96" x1="0%" y1="0%" x2="100%" y2="0%"><stop offset="0%" stop-color="#7873f5"></stop> <stop offset="100%" stop-color="#ec77ab"></stop></linearGradient><linearGradient id="97" x1="0%" y1="0%" x2="100%" y2="0%"><stop offset="0%" stop-color="#f9d423"></stop> <stop offset="100%" stop-color="#e14fad"></stop></linearGradient><linearGradient id="98" x1="0%" y1="0%" x2="100%" y2="0%"><stop offset="0%" stop-color="#009efd"></stop> <stop offset="100%" stop-color="#2af598"></stop></linearGradient><linearGradient id="99" x1="0%" y1="0%" x2="100%" y2="0%"><stop offset="0%" stop-color="#ffcc00"></stop> <stop offset="100%" stop-color="#00b140"></stop></linearGradient><linearGradient id="100" x1="0%" y1="0%" x2="100%" y2="0%"><stop offset="0%" stop-color="#d51007"></stop> <stop offset="100%" stop-color="#ff8177"></stop></linearGradient><linearGradient id="102" x1="0%" y1="0%" x2="100%" y2="0%"><stop offset="0%" stop-color="#a2b6df"></stop> <stop offset="100%" stop-color="#0c3483"></stop></linearGradient><linearGradient id="103" x1="0%" y1="0%" x2="100%" y2="0%"><stop offset="0%" stop-color="#7ac5d8"></stop> <stop offset="100%" stop-color="#eea2a2"></stop></linearGradient><linearGradient id="104" x1="0%" y1="0%" x2="100%" y2="0%"><stop offset="0%" stop-color="#00ecbc"></stop> <stop offset="100%" stop-color="#007adf"></stop></linearGradient><linearGradient id="105" x1="0%" y1="0%" x2="100%" y2="0%"><stop offset="0%" stop-color="#b88746"></stop> <stop offset="100%" stop-color="#fdf5a6"></stop></linearGradient></defs><g fill="#EDECEF" class="icon-text-wrapper icon-svg-group iconsvg" transform="translate(59.58000183105469,111.12655448913574)"><g class="iconsvg-imagesvg" transform="translate(0,0)" mask="url(#a2ba868d-0d4d-448d-a94d-a780e811b8a0)"><g><rect fill="#EDECEF" fill-opacity="0" stroke-width="2" x="0" y="0" width="33.19998779296876" height="27.746891254685433" class="image-rect"></rect> <svg filter="url(#colors8058852652)" x="0" y="0" width="33.19998779296876" height="27.746891254685433" filtersec="colorsf3589653589" class="image-svg-svg primary" style="overflow: visible;"><svg xmlns="http://www.w3.org/2000/svg" xmlns:xlink="http://www.w3.org/1999/xlink" xmlns:serif="http://www.serif.com/" viewBox="14.58116340637207 34.08647155761719 237.50355529785156 198.49314880371094" version="1.1" xml:space="preserve" x="0px" y="0px" fill-rule="evenodd" clip-rule="evenodd" stroke-linejoin="round" stroke-miterlimit="2"><path d="M82.323,172.73c0,-0 6.41,5.671 16.692,11.467c5.294,2.984 11.605,5.982 18.594,8.276c1.103,0.327 2.263,-0.302 2.591,-1.404c0.327,-1.102 -0.302,-2.263 -1.404,-2.59c-6.86,-1.829 -13.103,-4.379 -18.367,-6.965c-10.331,-5.076 -16.888,-10.24 -16.888,-10.24c-0.402,-0.337 -1.001,-0.283 -1.337,0.119c-0.336,0.402 -0.283,1.001 0.119,1.337Z"></path><path d="M144.095,161.055l-2.887,1.182c0,-0 -2.501,1.286 -0.795,3.282c1.178,1.379 1.178,1.378 2.081,2.547c-1.49,1.658 -3.309,4.69 -2.553,9.289c0.501,3.045 -0.612,8.31 -5.269,10.941c-3.371,1.904 -8.457,2.386 -15.876,0.183c-1.102,-0.328 -2.263,0.301 -2.59,1.403c-0.328,1.103 0.301,2.263 1.403,2.591c8.935,2.653 15.052,1.744 19.112,-0.549c6.488,-3.665 8.029,-11.004 7.331,-15.245c-0.481,-2.93 0.654,-4.86 1.592,-5.885c1.424,-1.376 1.549,-3.573 0.308,-5.066c-0.172,-0.227 -0.359,-0.466 -0.55,-0.705l0.647,-0.265c0.96,-0.394 1.716,-1.164 2.093,-2.13c0.378,-0.966 0.344,-2.045 -0.095,-2.985c-0.01,-0.021 -0.02,-0.042 -0.03,-0.063c-0.931,-1.833 -2.007,-4.112 -2.382,-5.965c-0.059,-0.29 -0.099,-0.565 -0.11,-0.822c-0.005,-0.104 0.007,-0.243 0.019,-0.348l0.027,-0.003c2.834,-0.157 8.965,-0.29 12.404,-1.789c1.685,-0.735 2.826,-1.816 3.301,-3.103c0.485,-1.313 0.403,-2.998 -1.014,-5.044c-4.351,-6.286 -13.588,-18.829 -16.247,-29.225c-0.966,-3.776 0.02,-6.565 1.214,-9.798c2.104,-5.702 4.956,-12.554 2.27,-26.159c-4.492,-22.755 -22.615,-35.634 -43.175,-40.702c-20.343,-5.016 -43.008,-2.322 -56.766,5.721c-9.401,5.496 -19.655,15.196 -26.176,26.936c-6.627,11.931 -9.398,25.939 -3.782,39.804c14.559,35.949 18.37,58.165 18.37,65.59c-0,7.271 -0.345,24.654 -14.66,41.262c-1.749,2.029 -2.145,3.958 -1.707,5.678c0.404,1.589 1.625,3.126 3.702,4.425c4.737,2.962 14.58,5.021 26.007,5.949c19.647,1.595 43.99,-0.029 54.274,-4.88c3.292,-1.553 5.27,-3.546 5.849,-5.651c0.447,-1.625 0.194,-3.414 -1.096,-5.326c-4.777,-7.084 -5.223,-13.934 -5.053,-20.034c0.123,-4.427 0.547,-8.496 0.135,-12.047c-0.133,-1.142 -1.168,-1.962 -2.31,-1.829c-1.142,0.133 -1.962,1.168 -1.829,2.31c0.392,3.375 -0.044,7.243 -0.161,11.45c-0.191,6.852 0.398,14.523 5.764,22.48c0.374,0.553 0.594,1.058 0.583,1.549c-0.012,0.516 -0.303,0.966 -0.727,1.407c-0.683,0.708 -1.688,1.335 -2.933,1.922c-9.88,4.661 -33.283,6.028 -52.159,4.496c-10.587,-0.86 -19.746,-2.585 -24.134,-5.329c-0.966,-0.604 -1.686,-1.181 -1.874,-1.919c-0.155,-0.61 0.206,-1.212 0.826,-1.931c15.262,-17.708 15.67,-36.229 15.67,-43.982c-0,-7.598 -3.776,-30.367 -18.675,-67.154c-5.111,-12.62 -2.469,-25.357 3.563,-36.217c6.138,-11.051 15.786,-20.188 24.636,-25.362c13.003,-7.602 34.438,-10.013 53.666,-5.273c19.011,4.687 35.93,16.423 40.085,37.464c2.455,12.436 -0.168,18.697 -2.092,23.909c-1.493,4.043 -2.55,7.551 -1.342,12.274c2.776,10.852 12.316,24.002 16.858,30.563c0.225,0.325 0.389,0.618 0.48,0.893c0.043,0.13 0.088,0.238 0.052,0.336c-0.135,0.365 -0.581,0.519 -1.058,0.727c-3.037,1.324 -8.468,1.31 -10.97,1.449c-1.211,0.067 -2.075,0.487 -2.699,1.066c-0.878,0.815 -1.347,2.055 -1.279,3.626c0.099,2.257 1.445,5.491 2.733,8.081Z"></path><path d="M220.662,119.589c-15.864,6.021 -33.92,8.648 -41.018,9.517c-2.756,0.314 -5.01,2.342 -5.612,5.051c0,0 0,0 0,0.001c-2.002,9.028 -7.875,35.514 -10.502,47.374c-0.45,2.028 0.097,4.149 1.471,5.707c1.375,1.558 3.411,2.365 5.479,2.172c0.007,-0.001 0.013,-0.001 0.019,-0.002c9.821,-1.006 29.59,-3.807 45.191,-10.847c10.871,-4.905 19.679,-11.918 22.299,-21.544c4.286,-15.742 9.865,-42.719 12.343,-55.006c0.508,-1.174 0.911,-2.385 1.202,-3.636c1.153,-4.956 0.572,-10.559 -2.471,-16.867c-4.864,-10.082 -14.811,-18.067 -26.369,-24.232c-16.896,-9.012 -37.197,-14.183 -49.117,-16.805c-0.002,-0.001 -0.004,-0.001 -0.005,-0.001c-3.495,-0.76 -6.947,1.449 -7.721,4.941c-2.004,9 -6.629,29.858 -8.708,39.233c-0,0.001 -0,0.002 -0.001,0.002c-0.394,1.786 -0.018,3.655 1.036,5.15c1.048,1.486 2.671,2.466 4.473,2.701c11.555,1.646 41.597,7.654 58.011,27.091Zm23.685,-9.105c-2.195,2.167 -4.78,4.148 -7.649,5.951c-3.531,2.218 -7.497,4.17 -11.664,5.882c-0.13,0.07 -0.265,0.125 -0.403,0.165c-16.855,6.847 -36.834,9.824 -44.483,10.76c-0.008,0.001 -0.016,0.002 -0.024,0.002c-0.994,0.11 -1.807,0.84 -2.024,1.816c-2.002,9.029 -7.875,35.513 -10.502,47.373c0,0 0,0 0,0c-0.161,0.729 0.035,1.49 0.528,2.049c0.493,0.559 1.222,0.848 1.963,0.781c9.544,-0.978 28.742,-3.665 43.887,-10.499c9.632,-4.346 17.671,-10.312 19.993,-18.84c3.377,-12.406 7.56,-31.824 10.378,-45.44Zm-19.635,7.47c3.477,-1.496 6.784,-3.172 9.769,-5.047c6.533,-4.104 11.521,-9.141 12.995,-15.475c0.966,-4.151 0.383,-8.829 -2.166,-14.113c-4.513,-9.355 -13.852,-16.645 -24.577,-22.365c-16.524,-8.815 -36.387,-13.846 -48.047,-16.412c-1.253,-0.272 -2.49,0.52 -2.767,1.772c-0,0.001 -0.001,0.001 -0.001,0.002c-2.003,9 -6.628,29.854 -8.707,39.23c-0.141,0.641 -0.006,1.313 0.372,1.85c0.379,0.537 0.966,0.889 1.618,0.971c0.011,0.002 0.022,0.003 0.033,0.005c12.292,1.751 44.474,8.43 61.478,29.582Z"></path><path d="M229.835,133.83c0.17,-0.752 -0.088,-1.537 -0.673,-2.04c-0.584,-0.503 -1.399,-0.642 -2.117,-0.361c-14.048,5.488 -29.737,8.602 -39.541,10.133c-0.847,0.133 -1.527,0.771 -1.712,1.608l-6.354,28.662c-0.15,0.677 0.046,1.384 0.523,1.887c0.478,0.502 1.174,0.734 1.858,0.618c8.79,-1.485 19.338,-3.952 28.347,-8.017c3.277,-1.479 6.458,-3.04 9.024,-4.944c2.851,-2.116 4.962,-4.663 5.84,-7.886c1.506,-5.532 3.173,-12.472 4.805,-19.66Zm-4.927,2.844c-1.335,5.758 -2.671,11.211 -3.899,15.721c-0.633,2.329 -2.242,4.106 -4.302,5.635c-2.344,1.739 -5.262,3.141 -8.255,4.492c-7.661,3.457 -16.482,5.699 -24.271,7.162c0.001,-0 5.372,-24.229 5.372,-24.229c9.183,-1.493 22.657,-4.246 35.353,-8.78l0.002,-0.001Z"></path><path d="M206.193,67.121c-9.268,-4.949 -15.593,-5.345 -26.347,-8.424c-1.106,-0.317 -2.26,0.324 -2.577,1.429c-0.316,1.106 0.324,2.26 1.43,2.577c10.413,2.981 16.558,3.302 25.532,8.094c1.014,0.541 2.277,0.157 2.819,-0.857c0.541,-1.014 0.158,-2.277 -0.857,-2.819Z"></path><path d="M207.585,85.444c-11.828,-7.42 -18.347,-7.422 -30.709,-10.962c-1.105,-0.316 -2.26,0.324 -2.576,1.43c-0.317,1.105 0.324,2.26 1.429,2.576c11.92,3.413 18.237,3.331 29.642,10.486c0.974,0.611 2.261,0.316 2.872,-0.658c0.611,-0.974 0.316,-2.261 -0.658,-2.872Z"></path><path d="M226.096,80.862c-6.019,-0 -10.098,4.67 -9.178,10.355c0.861,5.327 6.107,9.69 11.746,9.69c6.02,0 10.098,-4.67 9.179,-10.355c-0.861,-5.327 -6.107,-9.69 -11.747,-9.69Zm0,4.166c3.64,0 7.078,2.752 7.634,6.189c0.498,3.079 -1.806,5.524 -5.066,5.524c-3.639,-0 -7.077,-2.752 -7.633,-6.189c-0.498,-3.079 1.805,-5.524 5.065,-5.524Z"></path></svg></svg> <defs><filter id="colors8058852652"><feColorMatrix type="matrix" values="0 0 0 0 0.59765625  0 0 0 0 0.8828125  0 0 0 0 0.39453125  0 0 0 1 0" class="icon-feColorMatrix "></feColorMatrix></filter> <filter id="colorsf3589653589"><feColorMatrix type="matrix" values="0 0 0 0 0.99609375  0 0 0 0 0.99609375  0 0 0 0 0.99609375  0 0 0 1 0" class="icon-fecolormatrix"></feColorMatrix></filter> <filter id="colorsb3084958620"><feColorMatrix type="matrix" values="0 0 0 0 0  0 0 0 0 0  0 0 0 0 0  0 0 0 1 0" class="icon-fecolormatrix"></feColorMatrix></filter></defs></g><rect v-gra="id" width="45.199989318847656" height="39.746891021728516" transform="translate(-6, -6)" style="pointer-events:none;" fill="url(#hdmarspho_ejHCvEi_n2n)"></rect></g> <g transform="translate(43.199989318847656,2.1784448623657227)"><g fill-rule="" class="tp-name iconsvg-namesvg"><g transform="scale(1)"><g><path d="M15.3-16.84L4.07-16.84C2.52-16.84 1.26-15.58 1.26-14.04L1.26-2.81C1.26-1.26 2.52 0 4.07 0L20.3 0 20.3-1.89 18.01-1.89C18.07-2.36 18.11-2.67 18.11-2.81L18.11-14.04C18.11-15.58 16.85-16.84 15.3-16.84ZM3.16-2.81L3.16-14.04C3.16-14.53 3.58-14.95 4.07-14.95L15.3-14.95C15.79-14.95 16.21-14.53 16.21-14.04L16.21-2.81C16.21-2.31 15.79-1.89 15.3-1.89L4.07-1.89C3.58-1.89 3.16-2.31 3.16-2.81ZM32.89-1.92L24.75-1.92C24.25-1.92 23.84-2.34 23.84-2.83L23.84-13.57 21.92-13.57 21.92-2.83C21.92-1.28 23.2 0 24.75 0L32.89 0C34.45 0 35.74-1.27 35.74-2.83L35.74-13.57 33.82-13.57 33.82-2.83C33.82-2.34 33.38-1.92 32.89-1.92ZM50.04-10.74L50.04-7.74 38.15-7.74 38.15-2.83C38.15-1.28 39.44 0 40.98 0L51.98 0 51.98-10.74C51.98-12.3 50.69-13.57 49.12-13.57L38.15-13.57 38.15-11.65 49.12-11.65C49.62-11.65 50.04-11.23 50.04-10.74ZM40.07-2.83L40.07-5.82 50.04-5.82 50.04-1.92 40.98-1.92C40.49-1.92 40.07-2.34 40.07-2.83ZM56.94-11.65L65.08-11.65C65.57-11.65 65.99-11.23 65.99-10.74L65.99 0 67.91 0 67.91-10.74C67.91-12.28 66.62-13.57 65.08-13.57L54.08-13.57 54.08 0 56 0 56-10.74C56-11.23 56.44-11.65 56.94-11.65ZM73.17 0L78.13 0 78.13-1.92 73.17-1.92C72.67-1.92 72.26-2.34 72.26-2.83L72.26-11.65 78.13-11.65 78.13-13.57 72.26-13.57 72.26-18.01 70.34-18.01 70.34-2.83C70.34-1.27 71.6 0 73.17 0ZM80.02 0L81.94 0 81.94-13.57 80.02-13.57ZM80.02-18.01L80.02-16.09 81.94-16.09 81.94-18.01ZM83.81-15.18L83.81 0 85.73 0 85.73-11.65 91.6-11.65 91.6-13.57 85.73-13.57 85.73-15.18C85.73-15.68 86.15-16.09 86.64-16.09L91.6-16.09 91.6-18.01 86.64-18.01C85.06-18.01 83.81-16.76 83.81-15.18ZM104.05-1.92L95.91-1.92C95.41-1.92 94.99-2.34 94.99-2.83L94.99-13.52 93.08-13.52 93.08-2.83C93.08-1.28 94.36 0 95.91 0L104.96 0 104.96 2.53C104.96 3.02 104.54 3.44 104.05 3.44L95.58 3.44 95.58 5.38 104.05 5.38C105.63 5.38 106.88 4.1 106.88 2.53L106.88-13.52 104.96-13.52 104.96-2.83C104.96-2.34 104.54-1.92 104.05-1.92ZM115.81 0L132.65 0 132.65-1.89 117.71-1.89 117.71-16.87 115.81-16.87ZM145.8-10.74L145.8-7.74 133.92-7.74 133.92-2.83C133.92-1.28 135.2 0 136.75 0L147.74 0 147.74-10.74C147.74-12.3 146.45-13.57 144.89-13.57L133.92-13.57 133.92-11.65 144.89-11.65C145.38-11.65 145.8-11.23 145.8-10.74ZM135.84-2.83L135.84-5.82 145.8-5.82 145.8-1.92 136.75-1.92C136.25-1.92 135.84-2.34 135.84-2.83ZM163.44-2.83L163.44-10.74C163.44-12.28 162.15-13.57 160.61-13.57L151.53-13.57 151.53-18.01 149.61-18.01 149.61 0 160.61 0C162.15 0 163.44-1.28 163.44-2.83ZM160.61-1.92L152.47-1.92C151.97-1.92 151.53-2.34 151.53-2.83L151.53-10.74C151.53-11.23 151.97-11.65 152.47-11.65L160.61-11.65C161.1-11.65 161.52-11.23 161.52-10.74L161.52-2.83C161.52-2.34 161.1-1.92 160.61-1.92ZM176.05-13.57L167.91-13.57C166.36-13.57 165.08-12.28 165.08-10.74L165.08-8.65C165.08-7.11 166.36-5.82 167.91-5.82L176.05-5.82C176.54-5.82 176.96-5.41 176.96-4.91L176.96-2.83C176.96-2.34 176.54-1.92 176.05-1.92L167.91-1.92C167.41-1.92 166.99-2.34 166.99-2.83L166.99-3.02 165.08-3.02 165.08-2.83C165.08-1.28 166.36 0 167.91 0L176.05 0C177.61 0 178.9-1.27 178.9-2.83L178.9-4.91C178.9-6.47 177.61-7.74 176.05-7.74L167.91-7.74C167.41-7.74 166.99-8.16 166.99-8.65L166.99-10.74C166.99-11.23 167.41-11.65 167.91-11.65L176.05-11.65C176.54-11.65 176.96-11.23 176.96-10.74L176.96-10.55 178.9-10.55 178.9-10.74C178.9-12.3 177.61-13.57 176.05-13.57Z" transform="translate(-1.2599999904632568, 18.010000228881836)"></path></g> </g></g> </g></g><defs v-gra="od"></defs><defs v-gra="id"><filter id="9b583f83-e195-46ce-909c-7c42096fade0" filterUnits="userSpaceOnUse"><feColorMatrix type="matrix" values="0 0 0 0 0.99609375  0 0 0 0 0.99609375  0 0 0 0 0.99609375  0 0 0 1 0"></feColorMatrix></filter><linearGradient x1="0" y1="1" x2="0" y2="0" id="hdmarspho_ejHCvEi_n2n"><stop offset="0%" stop-color="#00c9ff"></stop><stop offset="100%" stop-color="#92fe9d"></stop></linearGradient><filter id="42443b3f1de60f6b6fd3b6a9844b4764" filterUnits="objectBoundingBox"><feColorMatrix type="matrix" values="0 0 0 0 0.99609375  0 0 0 0 0.99609375  0 0 0 0 0.99609375  0 0 0 1 0"></feColorMatrix></filter></defs><mask v-gra="im" id="a2ba868d-0d4d-448d-a94d-a780e811b8a0"><g class="iconsvg-imagesvg" filter="url(#9b583f83-e195-46ce-909c-7c42096fade0)"><g><rect fill="#EDECEF" fill-opacity="0" stroke-width="2" x="0" y="0" width="33.19998779296876" height="27.746891254685433" class="image-rect"></rect> <svg x="0" y="0" width="33.19998779296876" height="27.746891254685433" filtersec="colorsf3589653589" class="image-svg-svg primary" style="overflow: visible;"><svg xmlns="http://www.w3.org/2000/svg" xmlns:xlink="http://www.w3.org/1999/xlink" xmlns:serif="http://www.serif.com/" viewBox="14.58116340637207 34.08647155761719 237.50355529785156 198.49314880371094" version="1.1" xml:space="preserve" x="0px" y="0px" fill-rule="evenodd" clip-rule="evenodd" stroke-linejoin="round" stroke-miterlimit="2"><path d="M82.323,172.73c0,-0 6.41,5.671 16.692,11.467c5.294,2.984 11.605,5.982 18.594,8.276c1.103,0.327 2.263,-0.302 2.591,-1.404c0.327,-1.102 -0.302,-2.263 -1.404,-2.59c-6.86,-1.829 -13.103,-4.379 -18.367,-6.965c-10.331,-5.076 -16.888,-10.24 -16.888,-10.24c-0.402,-0.337 -1.001,-0.283 -1.337,0.119c-0.336,0.402 -0.283,1.001 0.119,1.337Z"></path><path d="M144.095,161.055l-2.887,1.182c0,-0 -2.501,1.286 -0.795,3.282c1.178,1.379 1.178,1.378 2.081,2.547c-1.49,1.658 -3.309,4.69 -2.553,9.289c0.501,3.045 -0.612,8.31 -5.269,10.941c-3.371,1.904 -8.457,2.386 -15.876,0.183c-1.102,-0.328 -2.263,0.301 -2.59,1.403c-0.328,1.103 0.301,2.263 1.403,2.591c8.935,2.653 15.052,1.744 19.112,-0.549c6.488,-3.665 8.029,-11.004 7.331,-15.245c-0.481,-2.93 0.654,-4.86 1.592,-5.885c1.424,-1.376 1.549,-3.573 0.308,-5.066c-0.172,-0.227 -0.359,-0.466 -0.55,-0.705l0.647,-0.265c0.96,-0.394 1.716,-1.164 2.093,-2.13c0.378,-0.966 0.344,-2.045 -0.095,-2.985c-0.01,-0.021 -0.02,-0.042 -0.03,-0.063c-0.931,-1.833 -2.007,-4.112 -2.382,-5.965c-0.059,-0.29 -0.099,-0.565 -0.11,-0.822c-0.005,-0.104 0.007,-0.243 0.019,-0.348l0.027,-0.003c2.834,-0.157 8.965,-0.29 12.404,-1.789c1.685,-0.735 2.826,-1.816 3.301,-3.103c0.485,-1.313 0.403,-2.998 -1.014,-5.044c-4.351,-6.286 -13.588,-18.829 -16.247,-29.225c-0.966,-3.776 0.02,-6.565 1.214,-9.798c2.104,-5.702 4.956,-12.554 2.27,-26.159c-4.492,-22.755 -22.615,-35.634 -43.175,-40.702c-20.343,-5.016 -43.008,-2.322 -56.766,5.721c-9.401,5.496 -19.655,15.196 -26.176,26.936c-6.627,11.931 -9.398,25.939 -3.782,39.804c14.559,35.949 18.37,58.165 18.37,65.59c-0,7.271 -0.345,24.654 -14.66,41.262c-1.749,2.029 -2.145,3.958 -1.707,5.678c0.404,1.589 1.625,3.126 3.702,4.425c4.737,2.962 14.58,5.021 26.007,5.949c19.647,1.595 43.99,-0.029 54.274,-4.88c3.292,-1.553 5.27,-3.546 5.849,-5.651c0.447,-1.625 0.194,-3.414 -1.096,-5.326c-4.777,-7.084 -5.223,-13.934 -5.053,-20.034c0.123,-4.427 0.547,-8.496 0.135,-12.047c-0.133,-1.142 -1.168,-1.962 -2.31,-1.829c-1.142,0.133 -1.962,1.168 -1.829,2.31c0.392,3.375 -0.044,7.243 -0.161,11.45c-0.191,6.852 0.398,14.523 5.764,22.48c0.374,0.553 0.594,1.058 0.583,1.549c-0.012,0.516 -0.303,0.966 -0.727,1.407c-0.683,0.708 -1.688,1.335 -2.933,1.922c-9.88,4.661 -33.283,6.028 -52.159,4.496c-10.587,-0.86 -19.746,-2.585 -24.134,-5.329c-0.966,-0.604 -1.686,-1.181 -1.874,-1.919c-0.155,-0.61 0.206,-1.212 0.826,-1.931c15.262,-17.708 15.67,-36.229 15.67,-43.982c-0,-7.598 -3.776,-30.367 -18.675,-67.154c-5.111,-12.62 -2.469,-25.357 3.563,-36.217c6.138,-11.051 15.786,-20.188 24.636,-25.362c13.003,-7.602 34.438,-10.013 53.666,-5.273c19.011,4.687 35.93,16.423 40.085,37.464c2.455,12.436 -0.168,18.697 -2.092,23.909c-1.493,4.043 -2.55,7.551 -1.342,12.274c2.776,10.852 12.316,24.002 16.858,30.563c0.225,0.325 0.389,0.618 0.48,0.893c0.043,0.13 0.088,0.238 0.052,0.336c-0.135,0.365 -0.581,0.519 -1.058,0.727c-3.037,1.324 -8.468,1.31 -10.97,1.449c-1.211,0.067 -2.075,0.487 -2.699,1.066c-0.878,0.815 -1.347,2.055 -1.279,3.626c0.099,2.257 1.445,5.491 2.733,8.081Z"></path><path d="M220.662,119.589c-15.864,6.021 -33.92,8.648 -41.018,9.517c-2.756,0.314 -5.01,2.342 -5.612,5.051c0,0 0,0 0,0.001c-2.002,9.028 -7.875,35.514 -10.502,47.374c-0.45,2.028 0.097,4.149 1.471,5.707c1.375,1.558 3.411,2.365 5.479,2.172c0.007,-0.001 0.013,-0.001 0.019,-0.002c9.821,-1.006 29.59,-3.807 45.191,-10.847c10.871,-4.905 19.679,-11.918 22.299,-21.544c4.286,-15.742 9.865,-42.719 12.343,-55.006c0.508,-1.174 0.911,-2.385 1.202,-3.636c1.153,-4.956 0.572,-10.559 -2.471,-16.867c-4.864,-10.082 -14.811,-18.067 -26.369,-24.232c-16.896,-9.012 -37.197,-14.183 -49.117,-16.805c-0.002,-0.001 -0.004,-0.001 -0.005,-0.001c-3.495,-0.76 -6.947,1.449 -7.721,4.941c-2.004,9 -6.629,29.858 -8.708,39.233c-0,0.001 -0,0.002 -0.001,0.002c-0.394,1.786 -0.018,3.655 1.036,5.15c1.048,1.486 2.671,2.466 4.473,2.701c11.555,1.646 41.597,7.654 58.011,27.091Zm23.685,-9.105c-2.195,2.167 -4.78,4.148 -7.649,5.951c-3.531,2.218 -7.497,4.17 -11.664,5.882c-0.13,0.07 -0.265,0.125 -0.403,0.165c-16.855,6.847 -36.834,9.824 -44.483,10.76c-0.008,0.001 -0.016,0.002 -0.024,0.002c-0.994,0.11 -1.807,0.84 -2.024,1.816c-2.002,9.029 -7.875,35.513 -10.502,47.373c0,0 0,0 0,0c-0.161,0.729 0.035,1.49 0.528,2.049c0.493,0.559 1.222,0.848 1.963,0.781c9.544,-0.978 28.742,-3.665 43.887,-10.499c9.632,-4.346 17.671,-10.312 19.993,-18.84c3.377,-12.406 7.56,-31.824 10.378,-45.44Zm-19.635,7.47c3.477,-1.496 6.784,-3.172 9.769,-5.047c6.533,-4.104 11.521,-9.141 12.995,-15.475c0.966,-4.151 0.383,-8.829 -2.166,-14.113c-4.513,-9.355 -13.852,-16.645 -24.577,-22.365c-16.524,-8.815 -36.387,-13.846 -48.047,-16.412c-1.253,-0.272 -2.49,0.52 -2.767,1.772c-0,0.001 -0.001,0.001 -0.001,0.002c-2.003,9 -6.628,29.854 -8.707,39.23c-0.141,0.641 -0.006,1.313 0.372,1.85c0.379,0.537 0.966,0.889 1.618,0.971c0.011,0.002 0.022,0.003 0.033,0.005c12.292,1.751 44.474,8.43 61.478,29.582Z"></path><path d="M229.835,133.83c0.17,-0.752 -0.088,-1.537 -0.673,-2.04c-0.584,-0.503 -1.399,-0.642 -2.117,-0.361c-14.048,5.488 -29.737,8.602 -39.541,10.133c-0.847,0.133 -1.527,0.771 -1.712,1.608l-6.354,28.662c-0.15,0.677 0.046,1.384 0.523,1.887c0.478,0.502 1.174,0.734 1.858,0.618c8.79,-1.485 19.338,-3.952 28.347,-8.017c3.277,-1.479 6.458,-3.04 9.024,-4.944c2.851,-2.116 4.962,-4.663 5.84,-7.886c1.506,-5.532 3.173,-12.472 4.805,-19.66Zm-4.927,2.844c-1.335,5.758 -2.671,11.211 -3.899,15.721c-0.633,2.329 -2.242,4.106 -4.302,5.635c-2.344,1.739 -5.262,3.141 -8.255,4.492c-7.661,3.457 -16.482,5.699 -24.271,7.162c0.001,-0 5.372,-24.229 5.372,-24.229c9.183,-1.493 22.657,-4.246 35.353,-8.78l0.002,-0.001Z"></path><path d="M206.193,67.121c-9.268,-4.949 -15.593,-5.345 -26.347,-8.424c-1.106,-0.317 -2.26,0.324 -2.577,1.429c-0.316,1.106 0.324,2.26 1.43,2.577c10.413,2.981 16.558,3.302 25.532,8.094c1.014,0.541 2.277,0.157 2.819,-0.857c0.541,-1.014 0.158,-2.277 -0.857,-2.819Z"></path><path d="M207.585,85.444c-11.828,-7.42 -18.347,-7.422 -30.709,-10.962c-1.105,-0.316 -2.26,0.324 -2.576,1.43c-0.317,1.105 0.324,2.26 1.429,2.576c11.92,3.413 18.237,3.331 29.642,10.486c0.974,0.611 2.261,0.316 2.872,-0.658c0.611,-0.974 0.316,-2.261 -0.658,-2.872Z"></path><path d="M226.096,80.862c-6.019,-0 -10.098,4.67 -9.178,10.355c0.861,5.327 6.107,9.69 11.746,9.69c6.02,0 10.098,-4.67 9.179,-10.355c-0.861,-5.327 -6.107,-9.69 -11.747,-9.69Zm0,4.166c3.64,0 7.078,2.752 7.634,6.189c0.498,3.079 -1.806,5.524 -5.066,5.524c-3.639,-0 -7.077,-2.752 -7.633,-6.189c-0.498,-3.079 1.805,-5.524 5.065,-5.524Z"></path></svg></svg> <defs><filter id="colors8058852652"><feColorMatrix type="matrix" values="0 0 0 0 0.59765625  0 0 0 0 0.8828125  0 0 0 0 0.39453125  0 0 0 1 0" class="icon-fecolormatrix"></feColorMatrix></filter> <filter id="colorsf3589653589"><feColorMatrix type="matrix" values="0 0 0 0 0.99609375  0 0 0 0 0.99609375  0 0 0 0 0.99609375  0 0 0 1 0" class="icon-fecolormatrix"></feColorMatrix></filter> <filter id="colorsb3084958620"><feColorMatrix type="matrix" values="0 0 0 0 0  0 0 0 0 0  0 0 0 0 0  0 0 0 1 0" class="icon-fecolormatrix"></feColorMatrix></filter></defs></g></g></mask></g></svg>